<svg xmlns="http://www.w3.org/2000/svg" viewBox="0 0 278.19 113.56"><defs><style>.cls-1{fill:#3d3935;}</style></defs><title>logo</title><g id="Layer_2" data-name="Layer 2"><g id="Logo"><path id="_Path_" data-name="&lt;Path&gt;" class="cls-1" d="M0,21.05S16.76,3.77,19,1.12A1.49,1.49,0,0,1,20.14.63l1.38,0V75.7H8.26V22.57H0Z"/><path id="_Compound_Path_" data-name="&lt;Compound Path&gt;" class="cls-1" d="M71,76.7A28,28,0,0,1,43,48.71V28a27.95,27.95,0,1,1,55.89,0V48.71A28,28,0,0,1,71,76.7m0-62.85A14.14,14.14,0,0,0,56.87,28V48.71a14.12,14.12,0,1,0,28.23,0V28A14.14,14.14,0,0,0,71,13.85"/><path id="_Path_2" data-name="&lt;Path&gt;" class="cls-1" d="M115.87,21.05s16.76-17.28,19-19.93A1.47,1.47,0,0,1,136,.63l1.38,0V75.7H124.12V22.57h-8.25Z"/><path class="cls-1" d="M160.24,53.27V75.7h-6.89V53.27h-6.58V47.54h20v5.73Z"/><path class="cls-1" d="M187.91,75.7v-12h-8.83v12h-6.89V47.54h6.89V58.23h8.83V47.54h6.89V75.7Z"/><path class="cls-1" d="M202.13,75.7V47.54H209V75.7Z"/><path class="cls-1" d="M263.18,75.7h-9.42V47.54h9.42c9.26,0,15,4.46,15,14.06C278.19,72.06,271.3,75.7,263.18,75.7Zm-.05-22.52h-2.48V70.07h2.48c4.34,0,7.93-1.75,7.93-8.42C271.06,54.2,267.24,53.18,263.13,53.18Z"/><path class="cls-1" d="M248,57.77c0-6.52-5.08-10.23-11.83-10.23H216.36V75.7h6.89v-8h11l4.42,8h7.81L241.16,67C245.28,65.64,248,62.51,248,57.77ZM223.25,53.3h11.11c4.36,0,6.56,1.42,6.56,4.7s-2.62,4.3-6.18,4.3H223.25Z"/><path class="cls-1" d="M219.07,113.56c-10,0-15.58-5.45-15.58-14.52,0-9.79,6.31-14.26,16.1-14.26a22.79,22.79,0,0,1,2.88.19l-.38,5.33c-.53,0-1.1,0-1.49,0-6.91,0-10,2.77-10,8.79s3.17,9,9.7,9c.53,0,1,0,1.54,0l.34,5.38C221.13,113.47,220.07,113.56,219.07,113.56Z"/><path class="cls-1" d="M229,113.25V85.09h18.3v5.79H235.87v5.45h11.41v5.55H235.87v5.53h11.41v5.84Z"/><path class="cls-1" d="M135.82,106.19H122.75v7.06h-6.88V85.09h19.85c6.75,0,11.83,3.27,11.83,10.49S142.47,106.19,135.82,106.19Zm-1.95-15.34H122.75v9.55h11.5c3.56,0,6.18-1.49,6.18-4.72S137.88,90.85,133.87,90.85Z"/><path class="cls-1" d="M152.15,113.25V85.09H159v22.45h10.84v5.71Z"/><path class="cls-1" d="M192.42,85.09H182.6l-8.28,28.16H182l1.51-6.14h7.91l1.53,6.14h7.72Zm-7.52,16.23,2.45-10.11h.25l2.5,10.11Z"/><path class="cls-1" d="M155.75,23.2v15h-4.59v-15h-4.39V19.38h13.37V23.2Z"/><path class="cls-1" d="M173.49,38.16v-8H167.6v8H163V19.38h4.59v7.13h5.89V19.38h4.59V38.16Z"/><path class="cls-1" d="M181.51,38.16V19.38H193.7v3.86h-7.6v3.64h7.6v3.7h-7.6v3.69h7.6v3.89Z"/></g></g></svg>